<svg xmlns="http://www.w3.org/2000/svg" width="682.667" height="682.667" version="1" viewBox="0 0 512 512"><path d="M403 52.7c-.8.2-4 3.7-7 7.6-8.8 11.5-22.3 29.2-24.5 32.1-1.1 1.5-4.6 6.1-7.7 10.2-3.1 4.1-5.8 7.9-6 8.5-.3.8-1.9.6-5.1-.5-6.4-2.2-7.1-1.6-19.2 14.9-8.9 12.1-10 13.3-11.5 12-2.6-2.3-10.1-4.6-14.5-4.3-5.6.2-11.5 2.9-15.3 6.9-1.8 1.9-8 9.9-13.7 17.9-5.8 8-11.1 15.4-11.9 16.5-1.4 1.8-16.5 22.7-105.8 145.6-17.4 24-32.7 45.2-33.8 47.2-2.6 4.4-3.4 12.6-1.7 18.2.6 2.1 3.1 5.9 5.4 8.4l4.3 4.5-3.2 4.6c-1.8 2.5-6.5 9-10.6 14.5-4 5.5-9.7 13.5-12.8 17.8-3.9 5.6-5.9 7.6-6.7 6.9-6.1-4.9-17.3-12.2-18.8-12.2-2.6 0-7 6.1-6.3 8.7.4 1.3 5.4 5.6 12.2 10.5 6.4 4.6 12.4 8.8 13.2 9.5.8.7 5.6 4.1 10.5 7.7 5 3.6 9.5 6.9 10 7.3 5.4 4.4 11.9 8.3 13.8 8.3 2.4 0 6.7-4.7 6.7-7.2-.1-2.6-4.7-6.8-15.2-13.8-2.1-1.4-3.8-2.8-3.8-3.2 0-.7 11.8-17.7 13-18.8.3-.3 3.5-4.6 7-9.5 11.6-16.4 12-16.8 13.9-15.1 5 4.6 16.6 5.4 23.6 1.8 5.4-2.7 6.5-4.1 26.5-31.7 9.5-13.2 19-26.3 21-29 3.8-5.1 61.4-84.3 76.7-105.5 4.5-6.3 17.2-23.8 28.1-38.8 12.8-17.6 20.2-28.7 20.9-31.3 2.2-8.4-.9-18.8-7.2-23.7-1.4-1.1-2.5-2.3-2.5-2.7 0-.7 11.8-17.5 13-18.5 2.2-1.9 7-10.7 6.7-12.5-.1-1.1-1.3-3.5-2.6-5.3-2-2.8-2.1-3.5-.9-5 .7-.9 1.6-2.1 2-2.7.4-.5 3.1-4.2 6-8.2 2.9-3.9 7.6-10.4 10.3-14.3 2.8-3.9 5.5-7.6 6-8.3.6-.7 4.1-5.5 7.9-10.7 3.8-5.2 8-11 9.4-12.8 1.3-1.7 2.3-3.1 2.1-3.1-.2.1-1.1.3-1.9.6z"/></svg>